<svg height='100px' width='100px'  fill="#000000" xmlns="http://www.w3.org/2000/svg" xmlns:xlink="http://www.w3.org/1999/xlink" xml:space="preserve" version="1.1" style="shape-rendering:geometricPrecision;text-rendering:geometricPrecision;image-rendering:optimizeQuality;" viewBox="0 0 60000 60000" x="0px" y="0px" fill-rule="evenodd" clip-rule="evenodd"><defs><style type="text/css">
   
    .fil0 {fill:#000000;fill-rule:nonzero}
   
  </style></defs><g><path class="fil0" d="M48564 52324l0 -39791 -42418 0 0 -800 42418 0 0 -4782 -47648 0 0 -797 47669 0c57,-582 214,-1207 455,-1782 245,-584 579,-1125 986,-1530 435,-433 955,-714 1544,-743 307,-15 626,40 954,177 545,228 1006,738 1212,1340 128,374 161,786 59,1194 -101,407 -334,803 -736,1142 -671,567 -1837,981 -3695,1000l0 4780 4451 0c57,-582 214,-1206 455,-1781 245,-584 579,-1125 986,-1530 435,-433 955,-714 1544,-743 307,-15 626,40 954,177 545,228 1006,738 1212,1340 128,374 161,786 59,1194 -101,407 -334,803 -736,1142 -672,567 -1838,981 -3696,1001l0 45372 -797 0 0 -45372 -4432 0 0 39791 -800 0zm1213 -47646c-202,481 -336,997 -391,1477 1626,-20 2615,-355 3157,-813 264,-223 414,-473 477,-724 62,-250 40,-507 -41,-744 -135,-393 -425,-720 -762,-862 -216,-91 -420,-127 -610,-118 -373,18 -718,212 -1019,511 -329,327 -604,777 -811,1271zm5230 5581c-202,481 -336,997 -391,1477 1626,-20 2615,-355 3157,-813 264,-223 414,-473 477,-724 62,-250 40,-507 -41,-744 -135,-393 -425,-720 -762,-862 -216,-91 -420,-127 -610,-118 -373,18 -718,212 -1019,511 -329,327 -604,777 -811,1271zm1913 -6048c-90,-90 -207,-135 -325,-135 -118,0 -235,45 -325,135 -90,90 -135,208 -135,325 0,118 45,235 135,325 90,90 207,135 325,135 118,0 235,-45 325,-135 90,-90 135,-208 135,-325 0,-118 -45,-235 -135,-325zm566 -566c246,246 369,568 369,891 0,322 -123,645 -369,891 -246,246 -568,369 -891,369 -322,0 -645,-123 -891,-369 -246,-246 -369,-568 -369,-891 0,-322 123,-645 369,-891 246,-246 568,-369 891,-369 322,0 645,123 891,369z"></path></g></svg>