<svg height='100px' width='100px'  fill="#000000" xmlns="http://www.w3.org/2000/svg" xmlns:xlink="http://www.w3.org/1999/xlink" xml:space="preserve" version="1.1" style="shape-rendering:geometricPrecision;text-rendering:geometricPrecision;image-rendering:optimizeQuality;" viewBox="0 0 60000 60000" x="0px" y="0px" fill-rule="evenodd" clip-rule="evenodd"><defs><style type="text/css">
   
    .fil0 {fill:#000000;fill-rule:nonzero}
   
  </style></defs><g><path class="fil0" d="M3209 5247l45801 0 0 5728 5728 0 0 45801 -800 0 0 -45004 -4945 0 0 -780 -780 0 0 -4945 -45004 0 0 -800zm45768 38029l0 -30315 500 0 0 30315 -500 0zm1699 -40051l6115 0 0 6512 -6515 0 0 -6512 400 0zm5315 797l-4915 0 0 4918 4915 0 0 -4918zm-39281 6487l30315 0 0 500 -30315 0 0 -500z"></path></g></svg>